<svg width="548" height="548" viewBox="0 0 548 548" fill="none" xmlns="http://www.w3.org/2000/svg">
<path d="M351.844 427.139C338.918 419.676 319.739 410.07 311.026 405.04C302.314 400.01 285.185 405.482 244.319 381.889C203.454 358.295 203.346 339.151 209.748 328.852C216.138 318.572 208.722 312.569 213.07 299.996C216.4 290.328 221.627 291.093 224.849 285.512C228.071 279.932 221.472 272.25 226.908 262.836C232.343 253.421 244.108 249.964 244.108 249.964C244.108 249.964 191.018 219.313 172.151 208.42C153.284 197.527 128.801 185.492 140.603 165.05C152.406 144.608 176.149 161.606 189.512 169.321C202.874 177.036 284.025 223.433 284.025 223.433C284.025 223.433 256.148 195.444 270.964 169.782C285.791 144.101 300.822 159.359 307.712 180.52C319.888 217.818 386.909 239.506 376.722 304.183C376.722 304.183 375.17 310.904 416.666 325.954C416.666 325.954 432.74 339.055 406.867 383.868C379.054 432.042 351.844 427.139 351.844 427.139Z" fill="url(#paint0_linear_10_14)"/>
<path d="M280.359 158.73C277.278 160.823 274.13 164.345 270.985 169.793C257.791 192.646 278.377 217.261 283.077 222.404L308.446 238.341L332.001 251.941C291.882 218.857 274.075 176.233 280.359 158.73Z" fill="url(#paint1_radial_10_14)"/>
<path d="M270.964 169.781C256.137 195.461 284.005 223.421 284.005 223.421L332.54 253.062C332.54 253.062 313.339 232.84 295.847 221.627C273.787 207.499 265.053 181.071 274.911 163.91C273.593 165.579 272.279 167.503 270.964 169.781Z" fill="url(#paint2_radial_10_14)"/>
<path d="M172.168 208.43C191.035 219.323 244.125 249.974 244.125 249.974C244.125 249.974 235.858 252.414 229.979 258.738C233.276 255.833 245.665 253.748 251.919 253.437C258.635 253.113 250.014 245.427 237.088 237.965C224.162 230.502 174.883 200.659 154.745 189.032C142.662 182.081 136.467 172.253 140.609 165.079C128.818 185.502 153.301 197.537 172.168 208.43Z" fill="url(#paint3_linear_10_14)"/>
<path d="M213.644 298.479C216.676 293.27 224.233 295.304 228.561 287.807C232.901 280.29 223.49 268.758 226.909 262.836C221.473 272.25 228.064 279.902 224.831 285.501C221.785 290.778 216.966 290.4 213.644 298.479Z" fill="url(#paint4_linear_10_14)"/>
<path d="M340.176 414.076C310.073 394.241 345.91 383.499 297.889 389.307C270.442 392.618 236.68 368.292 223.449 358.553C210.218 348.813 214.291 335.094 217.048 325.499C219.422 317.178 211.616 309.001 212.553 301.722C209.422 313.15 215.853 319.065 209.747 328.852C203.356 339.132 203.453 358.295 244.319 381.889C285.184 405.482 302.313 400.01 311.025 405.04C319.737 410.07 338.917 419.676 351.843 427.138C351.843 427.138 361.198 428.819 374.561 420.49C365.888 418.417 351.086 421.26 340.176 414.076Z" fill="url(#paint5_radial_10_14)"/>
<path d="M376.74 304.192C382.066 270.419 366.324 248.373 348.337 229.687C375.007 261.738 367.041 301.047 371.384 309.831C375.404 317.947 393.422 332.678 420.578 333.07C419.127 327.956 416.665 325.952 416.665 325.952C375.169 310.903 376.74 304.192 376.74 304.192Z" fill="url(#paint6_radial_10_14)"/>
<path d="M405.114 386.856C384.04 369.703 352.618 374.288 317.087 353.774C278.062 331.243 242.897 344.853 211.64 308.079C211.517 315.701 214.603 321.052 209.746 328.851C203.355 339.131 203.452 358.294 244.317 381.888C285.183 405.482 302.312 400.01 311.025 405.04C319.736 410.069 338.916 419.675 351.842 427.138C351.842 427.138 377.916 431.816 405.114 386.856Z" fill="url(#paint7_radial_10_14)"/>
<path d="M261.273 250.08C254.917 261.089 247.626 265.257 242.487 274.159C237.347 283.061 226.103 314.985 245.33 326.086C264.558 337.187 312.656 344.002 327.574 329.56C342.473 315.107 336.603 270.744 322.38 259.041C308.157 247.337 271.256 232.789 261.273 250.08Z" fill="url(#paint8_radial_10_14)"/>
<path d="M333.75 253.989C333.75 253.989 284.376 223.61 284.015 223.402L281.41 220.506C281.827 219.784 284.152 220.798 284.873 221.214C286.354 222.069 322.031 241.149 333.75 253.989Z" fill="#975500"/>
<path d="M157.361 172.143C153.821 178.274 165.249 191.882 195.999 204.372C226.75 216.862 253.983 250.654 262.706 235.546C271.418 220.456 210.598 195.262 201.829 190.199C193.067 185.166 164.44 159.882 157.361 172.143Z" fill="url(#paint9_radial_10_14)"/>
<defs>
<linearGradient id="paint0_linear_10_14" x1="355.086" y1="402.559" x2="187.984" y2="147.038" gradientUnits="userSpaceOnUse">
<stop offset="0.00132565" stop-color="#FFCB4B"/>
<stop offset="1" stop-color="#FFD748"/>
</linearGradient>
<radialGradient id="paint1_radial_10_14" cx="0" cy="0" r="1" gradientUnits="userSpaceOnUse" gradientTransform="translate(238.966 139.805) rotate(-60) scale(241.809 241.809)">
<stop stop-color="#FFBC47" stop-opacity="0"/>
<stop offset="1" stop-color="#FF8900"/>
</radialGradient>
<radialGradient id="paint2_radial_10_14" cx="0" cy="0" r="1" gradientUnits="userSpaceOnUse" gradientTransform="translate(215.733 170.929) rotate(32.9967) scale(146.58 30.8815)">
<stop stop-color="#FFBC47" stop-opacity="0"/>
<stop offset="1" stop-color="#FF8900"/>
</radialGradient>
<linearGradient id="paint3_linear_10_14" x1="171.081" y1="235.74" x2="221.134" y2="184.538" gradientUnits="userSpaceOnUse">
<stop stop-color="#FFBC47" stop-opacity="0"/>
<stop offset="1" stop-color="#E68E43"/>
</linearGradient>
<linearGradient id="paint4_linear_10_14" x1="211.947" y1="275.846" x2="249.67" y2="297.625" gradientUnits="userSpaceOnUse">
<stop stop-color="#FFBC47" stop-opacity="0"/>
<stop offset="1" stop-color="#E68E43"/>
</linearGradient>
<radialGradient id="paint5_radial_10_14" cx="0" cy="0" r="1" gradientUnits="userSpaceOnUse" gradientTransform="translate(275.873 357.511) rotate(-60) scale(144.717 144.718)">
<stop stop-color="#FFBC47" stop-opacity="0"/>
<stop offset="1" stop-color="#FF8900"/>
</radialGradient>
<radialGradient id="paint6_radial_10_14" cx="0" cy="0" r="1" gradientUnits="userSpaceOnUse" gradientTransform="translate(320.843 258.489) rotate(-60) scale(150.371 150.37)">
<stop stop-color="#FFBC47" stop-opacity="0"/>
<stop offset="1" stop-color="#FF8900"/>
</radialGradient>
<radialGradient id="paint7_radial_10_14" cx="0" cy="0" r="1" gradientUnits="userSpaceOnUse" gradientTransform="translate(280.011 327.191) rotate(-60) scale(125.47 515.905)">
<stop stop-color="#FFBC47" stop-opacity="0"/>
<stop offset="1" stop-color="#FF8900"/>
</radialGradient>
<radialGradient id="paint8_radial_10_14" cx="0" cy="0" r="1" gradientUnits="userSpaceOnUse" gradientTransform="translate(265.927 282.109) rotate(-60) scale(51.783 26.2834)">
<stop stop-color="#FBE07A"/>
<stop offset="0.2654" stop-color="#FCDF73" stop-opacity="0.7346"/>
<stop offset="0.6548" stop-color="#FDDB5F" stop-opacity="0.3452"/>
<stop offset="1" stop-color="#FFD748" stop-opacity="0"/>
</radialGradient>
<radialGradient id="paint9_radial_10_14" cx="0" cy="0" r="1" gradientUnits="userSpaceOnUse" gradientTransform="translate(210.094 203.755) rotate(28.4118) scale(63.503 7.40865)">
<stop stop-color="#FBE07A"/>
<stop offset="0.2654" stop-color="#FCDF73" stop-opacity="0.7346"/>
<stop offset="0.6548" stop-color="#FDDB5F" stop-opacity="0.3452"/>
<stop offset="1" stop-color="#FFD748" stop-opacity="0"/>
</radialGradient>
</defs>
</svg>
